<svg xmlns="http://www.w3.org/2000/svg" width="240" height="240" viewBox="0 0 240 240" fill="none"><defs><linearGradient id="g" x1="60" y1="40" x2="180" y2="210" gradientUnits="userSpaceOnUse"><stop stop-color="#FF78C3"/><stop offset="0.55" stop-color="#FF2F8F"/><stop offset="1" stop-color="#FF8B38"/></linearGradient><filter id="ds"><feDropShadow dx="0" dy="10" stdDeviation="10" flood-color="#ff72b7" flood-opacity="0.4"/></filter></defs><g filter="url(#ds)"><path d="M120 204C85 172 40 136 40 89C40 56 63 34 96 34C108 34 120 37 129 44C137 38 148 34 161 34C194 34 217 56 217 89C217 136 171 172 120 204Z" fill="url(#g)" stroke="white" stroke-width="10"/></g><circle cx="91" cy="95" r="16" fill="white"/><circle cx="87" cy="95" r="8" fill="#231727"/><path d="M143 92c8 0 14 6 14 14 0 8-6 14-14 14-8 0-14-6-14-14 0-8 6-14 14-14Z" fill="white"/><path d="M137 100c8 0 14 6 14 14" stroke="#231727" stroke-width="8" stroke-linecap="round"/><path d="M94 139c11 15 41 15 52 0" stroke="#231727" stroke-width="10" stroke-linecap="round"/><path d="M45 54l-14-14M62 41l-7-20M196 44l18-13M184 31l6-18" stroke="#FF2F8F" stroke-width="8" stroke-linecap="round"/></svg>